<svg width="16" height="17" viewBox="0 0 16 17" fill="none" xmlns="http://www.w3.org/2000/svg">
<path d="M8.00016 15.5834C4.31816 15.5834 1.3335 12.4122 1.3335 8.50008C1.3335 4.58796 4.31816 1.41675 8.00016 1.41675C11.6822 1.41675 14.6668 4.58796 14.6668 8.50008C14.6668 12.4122 11.6822 15.5834 8.00016 15.5834ZM4.6755 12.9314C5.61919 13.733 6.79195 14.1688 8.00016 14.1667C9.3135 14.1667 10.5155 13.6624 11.4448 12.8266C11.0106 12.3532 10.4915 11.9772 9.91819 11.7207C9.34484 11.4643 8.72891 11.3326 8.10683 11.3334C7.46189 11.3326 6.82383 11.4743 6.23314 11.7494C5.64245 12.0244 5.11202 12.427 4.6755 12.9314ZM3.74416 11.9142C4.30447 11.2825 4.98061 10.7793 5.73092 10.4358C6.48123 10.0922 7.28982 9.91558 8.10683 9.91675C8.8946 9.91566 9.67481 10.0799 10.4027 10.4001C11.1305 10.7203 11.7917 11.1901 12.3482 11.7825C12.9189 10.929 13.2559 9.92428 13.3219 8.87969C13.3878 7.83509 13.1801 6.7915 12.7218 5.8647C12.2635 4.93789 11.5725 4.16411 10.7255 3.62919C9.87844 3.09427 8.90849 2.81913 7.92323 2.8343C6.93798 2.84947 5.97594 3.15435 5.14384 3.71512C4.31175 4.27589 3.64214 5.07062 3.20929 6.01114C2.77645 6.95166 2.59729 8.00121 2.69171 9.04334C2.78612 10.0855 3.15041 11.0794 3.74416 11.915V11.9142ZM8.00016 9.20841C7.29292 9.20841 6.61464 8.9099 6.11454 8.37855C5.61445 7.8472 5.3335 7.12653 5.3335 6.37508C5.3335 5.62363 5.61445 4.90297 6.11454 4.37161C6.61464 3.84026 7.29292 3.54175 8.00016 3.54175C8.70741 3.54175 9.38568 3.84026 9.88578 4.37161C10.3859 4.90297 10.6668 5.62363 10.6668 6.37508C10.6668 7.12653 10.3859 7.8472 9.88578 8.37855C9.38568 8.9099 8.70741 9.20841 8.00016 9.20841ZM8.00016 7.79175C8.35379 7.79175 8.69292 7.64249 8.94297 7.37682C9.19302 7.11114 9.3335 6.7508 9.3335 6.37508C9.3335 5.99936 9.19302 5.63902 8.94297 5.37335C8.69292 5.10767 8.35379 4.95841 8.00016 4.95841C7.64654 4.95841 7.3074 5.10767 7.05735 5.37335C6.80731 5.63902 6.66683 5.99936 6.66683 6.37508C6.66683 6.7508 6.80731 7.11114 7.05735 7.37682C7.3074 7.64249 7.64654 7.79175 8.00016 7.79175Z" fill="white"/>
</svg>
