<svg width="16" height="17" viewBox="0 0 16 17" fill="none" xmlns="http://www.w3.org/2000/svg">
<path d="M8 16.8074L3.75734 12.2995C2.91823 11.408 2.34679 10.272 2.11529 9.03542C1.88378 7.79879 2.0026 6.517 2.45673 5.35212C2.91086 4.18725 3.6799 3.19161 4.66659 2.49112C5.65328 1.79063 6.81332 1.41675 8 1.41675C9.18669 1.41675 10.3467 1.79063 11.3334 2.49112C12.3201 3.19161 13.0891 4.18725 13.5433 5.35212C13.9974 6.517 14.1162 7.79879 13.8847 9.03542C13.6532 10.272 13.0818 11.408 12.2427 12.2995L8 16.8074ZM11.3 11.2979C11.9526 10.6045 12.397 9.721 12.577 8.75919C12.7571 7.79738 12.6646 6.80045 12.3114 5.89446C11.9582 4.98847 11.36 4.21412 10.5926 3.66931C9.82519 3.12451 8.92296 2.83372 8 2.83372C7.07704 2.83372 6.17481 3.12451 5.40739 3.66931C4.63997 4.21412 4.04183 4.98847 3.68861 5.89446C3.33539 6.80045 3.24294 7.79738 3.42297 8.75919C3.603 9.721 4.04741 10.6045 4.7 11.2979L8 14.8042L11.3 11.2979V11.2979ZM8 9.20836C7.64638 9.20836 7.30724 9.0591 7.05719 8.79343C6.80714 8.52775 6.66667 8.16742 6.66667 7.79169C6.66667 7.41597 6.80714 7.05563 7.05719 6.78996C7.30724 6.52428 7.64638 6.37503 8 6.37503C8.35362 6.37503 8.69276 6.52428 8.94281 6.78996C9.19286 7.05563 9.33334 7.41597 9.33334 7.79169C9.33334 8.16742 9.19286 8.52775 8.94281 8.79343C8.69276 9.0591 8.35362 9.20836 8 9.20836Z" fill="white"/>
</svg>
