<svg width="28" height="28" viewBox="0 0 28 28" fill="none" xmlns="http://www.w3.org/2000/svg">
<path d="M7.00016 22.1666H3.50016C3.19074 22.1666 2.894 22.0437 2.6752 21.8249C2.45641 21.6061 2.3335 21.3093 2.3335 20.9999V9.33325C2.3335 9.02383 2.45641 8.72709 2.6752 8.50829C2.894 8.2895 3.19074 8.16658 3.50016 8.16658H7.00016V3.49992C7.00016 3.1905 7.12308 2.89375 7.34187 2.67496C7.56066 2.45617 7.85741 2.33325 8.16683 2.33325H19.8335C20.1429 2.33325 20.4397 2.45617 20.6585 2.67496C20.8772 2.89375 21.0002 3.1905 21.0002 3.49992V8.16658H24.5002C24.8096 8.16658 25.1063 8.2895 25.3251 8.50829C25.5439 8.72709 25.6668 9.02383 25.6668 9.33325V20.9999C25.6668 21.3093 25.5439 21.6061 25.3251 21.8249C25.1063 22.0437 24.8096 22.1666 24.5002 22.1666H21.0002V24.4999C21.0002 24.8093 20.8772 25.1061 20.6585 25.3249C20.4397 25.5437 20.1429 25.6666 19.8335 25.6666H8.16683C7.85741 25.6666 7.56066 25.5437 7.34187 25.3249C7.12308 25.1061 7.00016 24.8093 7.00016 24.4999V22.1666ZM7.00016 19.8333V18.6666C7.00016 18.3572 7.12308 18.0604 7.34187 17.8416C7.56066 17.6228 7.85741 17.4999 8.16683 17.4999H19.8335C20.1429 17.4999 20.4397 17.6228 20.6585 17.8416C20.8772 18.0604 21.0002 18.3572 21.0002 18.6666V19.8333H23.3335V10.4999H4.66683V19.8333H7.00016ZM9.3335 4.66659V8.16658H18.6668V4.66659H9.3335ZM9.3335 19.8333V23.3333H18.6668V19.8333H9.3335ZM5.8335 11.6666H9.3335V13.9999H5.8335V11.6666Z" fill="white"/>
</svg>
