<svg width="28" height="28" viewBox="0 0 28 28" fill="none" xmlns="http://www.w3.org/2000/svg">
<path d="M15.8387 20.1495L9.87699 16.898C9.30473 17.4661 8.57711 17.852 7.78584 18.0071C6.99458 18.1622 6.17511 18.0796 5.43074 17.7697C4.68636 17.4597 4.05041 16.9363 3.60306 16.2655C3.15571 15.5946 2.91699 14.8064 2.91699 14C2.91699 13.1937 3.15571 12.4055 3.60306 11.7346C4.05041 11.0638 4.68636 10.5404 5.43074 10.2304C6.17511 9.92049 6.99458 9.83787 7.78584 9.99298C8.57711 10.1481 9.30473 10.534 9.87699 11.102L15.8387 7.85055C15.6342 6.89124 15.7819 5.89039 16.2547 5.03101C16.7275 4.17164 17.4939 3.51117 18.4136 3.17039C19.3334 2.82961 20.345 2.83128 21.2637 3.17511C22.1823 3.51895 22.9464 4.18195 23.4164 5.04289C23.8864 5.90383 24.0307 6.90517 23.8231 7.86379C23.6154 8.82242 23.0696 9.67427 22.2855 10.2636C21.5015 10.8529 20.5314 11.1402 19.5529 11.0731C18.5743 11.006 17.6526 10.5889 16.9563 9.89805L10.9947 13.1495C11.1136 13.7103 11.1136 14.2898 10.9947 14.8505L16.9563 18.102C17.6526 17.4112 18.5743 16.9941 19.5529 16.927C20.5314 16.8599 21.5015 17.1472 22.2855 17.7365C23.0696 18.3258 23.6154 19.1777 23.8231 20.1363C24.0307 21.0949 23.8864 22.0963 23.4164 22.9572C22.9464 23.8181 22.1823 24.4811 21.2637 24.825C20.345 25.1688 19.3334 25.1705 18.4136 24.8297C17.4939 24.4889 16.7275 23.8285 16.2547 22.9691C15.7819 22.1097 15.6342 21.1089 15.8387 20.1495Z" fill="white"/>
</svg>
