<?xml version="1.0" encoding="utf-8"?>
<!-- Generator: Adobe Illustrator 25.4.1, SVG Export Plug-In . SVG Version: 6.00 Build 0)  -->
<svg version="1.1" id="圖層_1" xmlns="http://www.w3.org/2000/svg" xmlns:xlink="http://www.w3.org/1999/xlink" x="0px" y="0px"
	 viewBox="0 0 45.1 45.8" style="enable-background:new 0 0 45.1 45.8;" xml:space="preserve">
<style type="text/css">
	.st0{fill:#FFFFFF;}
</style>
<g>
	<g>
		<g>
			<path class="st0" d="M22.6,25.7c7.1,0,12.9-5.8,12.9-12.9C35.4,5.8,29.6,0,22.6,0C15.5,0,9.7,5.8,9.7,12.9
				C9.7,19.9,15.5,25.7,22.6,25.7z M22.6,4c4.9,0,8.9,4,8.9,8.9c0,4.9-4,8.9-8.9,8.9c-4.9,0-8.9-4-8.9-8.9C13.7,8,17.7,4,22.6,4z"/>
		</g>
	</g>
	<g>
		<path class="st0" d="M43,45.8H2.1c-1.2,0-2.1-0.9-2.1-2.1v-7.1c0-4.9,4-8.8,8.8-8.8h4.8c1.2,0,2.1,0.9,2.1,2.1
			c0,1.2-0.9,2.1-2.1,2.1H8.8c-2.6,0-4.7,2.1-4.7,4.7v5.1h36.7v-5.1c0-2.6-2.1-4.7-4.7-4.7h-4.8c-1.2,0-2.1-0.9-2.1-2.1
			c0-1.2,0.9-2.1,2.1-2.1h4.8c4.9,0,8.8,4,8.8,8.8v7.1C45.1,44.8,44.2,45.8,43,45.8z"/>
	</g>
</g>
</svg>
